# xmcd CD database file
#
# Track frame offsets:
#	150
#	17166
#	32220
#	47300
#	63466
#	75348
#	94000
#	114188
#	129869
#	149052
#	160733
#	173462
#	185038
#	207723
#	233967
#
# Disc length: 3326 seconds
#
# Revision: 2
# Processed by: cddbd v1.5.2PL0 Copyright (c) Steve Scherf et al.
# Submitted via: CDex 1.70beta2
#
DISCID=c20cfc0f
DTITLE=Ernie Haase and Signature Sound - Dream On
DYEAR=2008
DGENRE=CCM Gospel 2001-2010
TTITLE0=Right Place, Right Time - Gloria Gaither, Michael W. Smith
TTITLE1=Reason Enough - Ernie Haase, Wayne Haun, Joel Lindsey
TTITLE2=My Heavenly Father Watches Over Me
TTITLE3=Dream On - Gloria Gaither, David Huntsinger
TTITLE4=Never Give Up, Never Give In - Lyn Rowell
TTITLE5=Since Jesus Passed By
TTITLE6=No Unknown Soldiers - Gloria Gaither, Lari Goss
TTITLE7=Sundays Are Made for Times Like These - Ernie Haase, Joel Lindsey, Sue Smith
TTITLE8=A Good Heart - Ernie Haase, Joel Lindsey, Sue Smith
TTITLE9=Between the Cross and Heaven - Gloria Gaither
TTITLE10=Are You Enjoying the Show - Ernie Haase, Joel Lindsey, Sue Smith
TTITLE11=The Old Landmark - Traditional
TTITLE12=Out of Bondage/I'm Free - Gloria Gaither, J.D. Miller
TTITLE13=We Need Each Other - Reach out and Touch (Somebody's Hand) - Nick Ashford, Benjamin Gaither Band, Ernie Haase, Joel Lindsey, Valerie Simpson
TTITLE14=My Kind Of Town (Live Version) - Sammy Cahn
EXTD=www.gerth.de, Art.-Nr. 3547559 YEAR: 2008
EXTT0=
EXTT1=
EXTT2=
EXTT3=
EXTT4=
EXTT5=
EXTT6=
EXTT7=
EXTT8=
EXTT9=
EXTT10=
EXTT11=
EXTT12=
EXTT13=
EXTT14=
PLAYORDER=
